<?xml version="1.0" encoding="UTF-8"?>
<svg version="1.1" viewBox="0 0 100 100" xmlns="http://www.w3.org/2000/svg" xmlns:xlink="http://www.w3.org/1999/xlink">
	<g stroke="transparent" fill="white">
		<path d="m70 79.2c-9.6 0-17.5-7.9-17.5-17.5 0-1.4-1.1-2.5-2.5-2.5s-2.5 1.1-2.5 2.5c0 12.4 10.1 22.5 22.5 22.5 1.4 0 2.5-1.1 2.5-2.5s-1.1-2.5-2.5-2.5z"/>
		<path d="m50 29.2c-17.9 0-32.5 14.6-32.5 32.5 0 1.4 1.1 2.5 2.5 2.5s2.5-1.1 2.5-2.5c0-15.2 12.3-27.5 27.5-27.5s27.5 12.3 27.5 27.5c0 4.1-3.4 7.5-7.5 7.5s-7.5-3.4-7.5-7.5c0-6.9-5.6-12.5-12.5-12.5s-12.5 5.6-12.5 12.5c0 4.4 0.9 8.6 2.6 12.7 1.6 3.9 4 7.3 7 10.3s6.5 5.3 10.3 7c0.3 0.1 0.6 0.2 1 0.2 1 0 1.9-0.6 2.3-1.5 0.5-1.3-0.1-2.7-1.3-3.3-3.3-1.4-6.2-3.4-8.7-5.9s-4.5-5.5-5.9-8.7c-1.4-3.4-2.2-7-2.2-10.7 0-4.1 3.4-7.5 7.5-7.5s7.5 3.4 7.5 7.5c0 6.9 5.6 12.5 12.5 12.5s12.5-5.6 12.5-12.5c-0.1-18-14.7-32.6-32.6-32.6z"/>
		<path d="m32.5 61.7c0-9.6 7.9-17.5 17.5-17.5s17.5 7.9 17.5 17.5c0 1.4 1.1 2.5 2.5 2.5s2.5-1.1 2.5-2.5c0-12.4-10.1-22.5-22.5-22.5s-22.5 10.1-22.5 22.5c0 11.4 4.4 22 12.4 30.1 0.5 0.5 1.1 0.7 1.8 0.7s1.3-0.2 1.8-0.7c1-1 1-2.6 0-3.5-7.1-7.2-11-16.6-11-26.6z"/>
		<path d="m89.2 45.2c-2.1-5.1-5.2-9.6-9.1-13.5s-8.4-7-13.5-9.1c-5.2-2.2-10.8-3.3-16.5-3.3s-11.3 1.1-16.5 3.3c-5.1 2.1-9.6 5.2-13.5 9.1s-7 8.4-9.1 13.5c-0.5 1.3 0.1 2.7 1.3 3.3 1.3 0.5 2.7-0.1 3.3-1.3 1.9-4.5 4.6-8.5 8-11.9s7.5-6.1 11.9-8c4.6-2 9.5-2.9 14.6-2.9s10 1 14.6 2.9c4.5 1.9 8.5 4.6 11.9 8s6.1 7.5 8 11.9c0.4 1 1.3 1.5 2.3 1.5 0.3 0 0.7-0.1 1-0.2 1.2-0.6 1.8-2.1 1.3-3.3z"/>
		<path d="m16.4 28.1c9-9 20.9-13.9 33.6-13.9s24.6 4.9 33.6 13.9c0.5 0.5 1.1 0.7 1.8 0.7s1.3-0.2 1.8-0.7c1-1 1-2.6 0-3.5-10-9.9-23.2-15.4-37.2-15.4s-27.2 5.5-37.1 15.4c-1 1-1 2.6 0 3.5 1 1 2.5 1 3.5 0z"/>
	</g>
</svg>
